<svg xmlns="http://www.w3.org/2000/svg" width="100" height="18" viewBox="0 0 100 18">
    <g fill="#00ADF2" fill-rule="evenodd">
        <path d="M17.891 9.04c0-4.574 3.362-7.66 7.722-7.66 3.167 0 5.011 1.754 6.03 3.619l-2.646 1.332c-.607-1.199-1.909-2.153-3.384-2.153-2.646 0-4.555 2.064-4.555 4.862 0 2.797 1.909 4.862 4.555 4.862 1.475 0 2.777-.955 3.384-2.154l2.647 1.31c-1.02 1.843-2.864 3.641-6.03 3.641-4.36 0-7.723-3.108-7.723-7.66M41.86 11.97c0-.932-.65-1.687-1.844-1.687h-3.991v3.375h3.991c1.15 0 1.844-.622 1.844-1.688zm-.282-6.016c0-.91-.65-1.554-1.692-1.554h-3.861v3.108h3.86c1.042 0 1.693-.6 1.693-1.554zm-8.633 10.479V1.624h7.613c2.755 0 4.165 1.799 4.165 3.775 0 1.842-1.128 3.108-2.494 3.397 1.561.244 2.776 1.776 2.776 3.618 0 2.243-1.432 4.019-4.208 4.019h-7.852zM45.786 14.346l1.692-2.464c1.019 1.087 2.603 2.02 4.598 2.02 1.714 0 2.516-.777 2.516-1.643 0-2.575-8.33-.777-8.33-6.35 0-2.464 2.083-4.506 5.489-4.506 2.3 0 4.208.71 5.64 2.064l-1.714 2.354C54.506 4.71 52.944 4.2 51.47 4.2c-1.302 0-2.04.577-2.04 1.465 0 2.331 8.309.755 8.309 6.283 0 2.709-1.91 4.751-5.792 4.751-2.798 0-4.794-.954-6.16-2.353M66.058 14.926V6.488h-2.966V4.542h8.091v1.946h-2.95v8.438h-2.175M72.185 14.926V4.542h7.18v1.946h-5.02v2.18h4.913v1.945h-4.913v2.366h5.02v1.947h-7.18M80.184 9.742c0-3.207 2.358-5.37 5.415-5.37 2.22 0 3.513 1.229 4.228 2.537l-1.855.934c-.427-.841-1.339-1.51-2.373-1.51-1.856 0-3.194 1.447-3.194 3.409 0 1.961 1.338 3.41 3.194 3.41 1.034 0 1.946-.67 2.373-1.511l1.855.918c-.715 1.292-2.008 2.553-4.228 2.553-3.057 0-5.415-2.18-5.415-5.37M97.688 14.926V10.55h-4.79v4.375h-2.16V4.542h2.16v4.079h4.79V4.542h2.176v10.384h-2.176M4.314 9.897c.334 1.77 1.728 3.196 3.456 3.54 3.091.613 5.767-2.13 5.181-5.305-.327-1.772-1.724-3.2-3.455-3.534-3.1-.597-5.778 2.138-5.182 5.299zm4.327-5.82c3.976 0 6.653 2.645 7.755 4.932-1.093 2.305-3.765 4.97-7.755 4.97-3.99 0-6.661-2.665-7.753-4.97 1.1-2.287 3.777-4.932 7.753-4.932zM.042 9.01c0 4.923 3.858 8.927 8.6 8.927 4.81 0 8.578-3.921 8.578-8.927C17.22 4.108 13.372.12 8.641.12 3.9.12.042 4.108.042 9.009zM60.242 16.831h.606V1.913h-.606z"/>
    </g>
</svg>
